<mxfile host="65bd71144e">
    <diagram id="XGsmoVSJ0GljXPWc84LD" name="Page-1">
        <mxGraphModel dx="667" dy="819" grid="1" gridSize="10" guides="1" tooltips="1" connect="1" arrows="1" fold="1" page="1" pageScale="1" pageWidth="850" pageHeight="1100" math="0" shadow="0">
            <root>
                <mxCell id="0"/>
                <mxCell id="1" parent="0"/>
                <mxCell id="2" value="" style="rounded=0;whiteSpace=wrap;html=1;fillColor=#006633;fontColor=#ffffff;strokeColor=#BCBCBC;" vertex="1" parent="1">
                    <mxGeometry x="240" y="160" width="40" height="40" as="geometry"/>
                </mxCell>
                <mxCell id="3" value="" style="rounded=0;whiteSpace=wrap;html=1;fillColor=#006633;fontColor=#ffffff;strokeColor=#BCBCBC;" vertex="1" parent="1">
                    <mxGeometry x="280" y="160" width="40" height="40" as="geometry"/>
                </mxCell>
                <mxCell id="4" value="" style="rounded=0;whiteSpace=wrap;html=1;fillColor=#0000FF;fontColor=#ffffff;strokeColor=#BCBCBC;" vertex="1" parent="1">
                    <mxGeometry x="320" y="160" width="40" height="40" as="geometry"/>
                </mxCell>
                <mxCell id="5" value="" style="rounded=0;whiteSpace=wrap;html=1;fillColor=#0000FF;fontColor=#ffffff;strokeColor=#BCBCBC;" vertex="1" parent="1">
                    <mxGeometry x="400" y="160" width="40" height="40" as="geometry"/>
                </mxCell>
                <mxCell id="6" value="" style="rounded=0;whiteSpace=wrap;html=1;fillColor=#0000FF;fontColor=#ffffff;strokeColor=#BCBCBC;" vertex="1" parent="1">
                    <mxGeometry x="440" y="160" width="40" height="40" as="geometry"/>
                </mxCell>
                <mxCell id="7" value="" style="rounded=0;whiteSpace=wrap;html=1;fillColor=#006633;fontColor=#ffffff;strokeColor=#BCBCBC;" vertex="1" parent="1">
                    <mxGeometry x="240" y="200" width="40" height="40" as="geometry"/>
                </mxCell>
                <mxCell id="8" value="" style="rounded=0;whiteSpace=wrap;html=1;fillColor=#006633;fontColor=#ffffff;strokeColor=#BCBCBC;" vertex="1" parent="1">
                    <mxGeometry x="280" y="200" width="40" height="40" as="geometry"/>
                </mxCell>
                <mxCell id="9" value="" style="rounded=0;whiteSpace=wrap;html=1;fillColor=#0000FF;fontColor=#ffffff;strokeColor=#BCBCBC;" vertex="1" parent="1">
                    <mxGeometry x="320" y="200" width="40" height="40" as="geometry"/>
                </mxCell>
                <mxCell id="10" value="" style="rounded=0;whiteSpace=wrap;html=1;fillColor=#006633;fontColor=#ffffff;strokeColor=#BCBCBC;" vertex="1" parent="1">
                    <mxGeometry x="240" y="320" width="40" height="40" as="geometry"/>
                </mxCell>
                <mxCell id="11" value="" style="rounded=0;whiteSpace=wrap;html=1;fillColor=#006633;fontColor=#ffffff;strokeColor=#BCBCBC;" vertex="1" parent="1">
                    <mxGeometry x="280" y="320" width="40" height="40" as="geometry"/>
                </mxCell>
                <mxCell id="12" value="" style="rounded=0;whiteSpace=wrap;html=1;fillColor=#006633;fontColor=#ffffff;strokeColor=#BCBCBC;" vertex="1" parent="1">
                    <mxGeometry x="240" y="360" width="40" height="40" as="geometry"/>
                </mxCell>
                <mxCell id="13" value="" style="rounded=0;whiteSpace=wrap;html=1;fillColor=#006633;fontColor=#ffffff;strokeColor=#BCBCBC;" vertex="1" parent="1">
                    <mxGeometry x="280" y="360" width="40" height="40" as="geometry"/>
                </mxCell>
                <mxCell id="14" value="" style="rounded=0;whiteSpace=wrap;html=1;fillColor=#006633;fontColor=#ffffff;strokeColor=#BCBCBC;" vertex="1" parent="1">
                    <mxGeometry x="320" y="320" width="40" height="40" as="geometry"/>
                </mxCell>
                <mxCell id="15" value="" style="rounded=0;whiteSpace=wrap;html=1;fillColor=#0000FF;fontColor=#ffffff;strokeColor=#BCBCBC;" vertex="1" parent="1">
                    <mxGeometry x="400" y="200" width="40" height="40" as="geometry"/>
                </mxCell>
                <mxCell id="16" value="" style="rounded=0;whiteSpace=wrap;html=1;fillColor=#0000FF;fontColor=#ffffff;strokeColor=#BCBCBC;" vertex="1" parent="1">
                    <mxGeometry x="440" y="200" width="40" height="40" as="geometry"/>
                </mxCell>
                <mxCell id="17" value="" style="rounded=0;whiteSpace=wrap;html=1;fillColor=#006633;fontColor=#ffffff;strokeColor=#BCBCBC;" vertex="1" parent="1">
                    <mxGeometry x="320" y="360" width="40" height="40" as="geometry"/>
                </mxCell>
                <mxCell id="18" value="" style="rounded=0;whiteSpace=wrap;html=1;fillColor=#0000FF;fontColor=#ffffff;strokeColor=#BCBCBC;" vertex="1" parent="1">
                    <mxGeometry x="400" y="320" width="40" height="40" as="geometry"/>
                </mxCell>
                <mxCell id="19" value="" style="rounded=0;whiteSpace=wrap;html=1;fillColor=#0000FF;fontColor=#ffffff;strokeColor=#BCBCBC;" vertex="1" parent="1">
                    <mxGeometry x="440" y="320" width="40" height="40" as="geometry"/>
                </mxCell>
                <mxCell id="20" value="" style="rounded=0;whiteSpace=wrap;html=1;fillColor=#0000FF;fontColor=#ffffff;strokeColor=#BCBCBC;" vertex="1" parent="1">
                    <mxGeometry x="400" y="360" width="40" height="40" as="geometry"/>
                </mxCell>
                <mxCell id="21" value="" style="rounded=0;whiteSpace=wrap;html=1;fillColor=#0000FF;fontColor=#ffffff;strokeColor=#BCBCBC;" vertex="1" parent="1">
                    <mxGeometry x="440" y="360" width="40" height="40" as="geometry"/>
                </mxCell>
                <mxCell id="22" value="" style="rounded=0;whiteSpace=wrap;html=1;fillColor=#006633;fontColor=#ffffff;strokeColor=#BCBCBC;" vertex="1" parent="1">
                    <mxGeometry x="240" y="240" width="40" height="40" as="geometry"/>
                </mxCell>
                <mxCell id="23" value="" style="rounded=0;whiteSpace=wrap;html=1;fillColor=#006633;fontColor=#ffffff;strokeColor=#BCBCBC;" vertex="1" parent="1">
                    <mxGeometry x="280" y="240" width="40" height="40" as="geometry"/>
                </mxCell>
                <mxCell id="24" value="" style="rounded=0;whiteSpace=wrap;html=1;fillColor=#006633;fontColor=#ffffff;strokeColor=#BCBCBC;" vertex="1" parent="1">
                    <mxGeometry x="240" y="280" width="40" height="40" as="geometry"/>
                </mxCell>
                <mxCell id="25" value="" style="rounded=0;whiteSpace=wrap;html=1;fillColor=#006633;fontColor=#ffffff;strokeColor=#BCBCBC;" vertex="1" parent="1">
                    <mxGeometry x="280" y="280" width="40" height="40" as="geometry"/>
                </mxCell>
                <mxCell id="26" value="" style="rounded=0;whiteSpace=wrap;html=1;fillColor=#006633;fontColor=#ffffff;strokeColor=#BCBCBC;" vertex="1" parent="1">
                    <mxGeometry x="320" y="240" width="40" height="40" as="geometry"/>
                </mxCell>
                <mxCell id="27" value="" style="rounded=0;whiteSpace=wrap;html=1;fillColor=#006633;fontColor=#ffffff;strokeColor=#BCBCBC;" vertex="1" parent="1">
                    <mxGeometry x="320" y="280" width="40" height="40" as="geometry"/>
                </mxCell>
                <mxCell id="28" value="" style="rounded=0;whiteSpace=wrap;html=1;fillColor=#006633;fontColor=#ffffff;strokeColor=#BCBCBC;" vertex="1" parent="1">
                    <mxGeometry x="360" y="240" width="40" height="40" as="geometry"/>
                </mxCell>
                <mxCell id="29" value="" style="rounded=0;whiteSpace=wrap;html=1;fillColor=#0000FF;fontColor=#ffffff;strokeColor=#BCBCBC;" vertex="1" parent="1">
                    <mxGeometry x="400" y="240" width="40" height="40" as="geometry"/>
                </mxCell>
                <mxCell id="30" value="" style="rounded=0;whiteSpace=wrap;html=1;fillColor=#006633;fontColor=#ffffff;strokeColor=#BCBCBC;" vertex="1" parent="1">
                    <mxGeometry x="360" y="280" width="40" height="40" as="geometry"/>
                </mxCell>
                <mxCell id="31" value="" style="rounded=0;whiteSpace=wrap;html=1;fillColor=#0000FF;fontColor=#ffffff;strokeColor=#BCBCBC;" vertex="1" parent="1">
                    <mxGeometry x="400" y="280" width="40" height="40" as="geometry"/>
                </mxCell>
                <mxCell id="32" value="" style="rounded=0;whiteSpace=wrap;html=1;fillColor=#0000FF;fontColor=#ffffff;strokeColor=#BCBCBC;" vertex="1" parent="1">
                    <mxGeometry x="440" y="240" width="40" height="40" as="geometry"/>
                </mxCell>
                <mxCell id="33" value="" style="rounded=0;whiteSpace=wrap;html=1;fillColor=#0000FF;fontColor=#ffffff;strokeColor=#BCBCBC;" vertex="1" parent="1">
                    <mxGeometry x="440" y="280" width="40" height="40" as="geometry"/>
                </mxCell>
                <mxCell id="34" value="" style="rounded=0;whiteSpace=wrap;html=1;fillColor=#0000FF;fontColor=#ffffff;strokeColor=#BCBCBC;" vertex="1" parent="1">
                    <mxGeometry x="360" y="160" width="40" height="40" as="geometry"/>
                </mxCell>
                <mxCell id="35" value="" style="rounded=0;whiteSpace=wrap;html=1;fillColor=#0000FF;fontColor=#ffffff;strokeColor=#BCBCBC;" vertex="1" parent="1">
                    <mxGeometry x="360" y="200" width="40" height="40" as="geometry"/>
                </mxCell>
                <mxCell id="36" value="" style="rounded=0;whiteSpace=wrap;html=1;fillColor=#006633;fontColor=#ffffff;strokeColor=#BCBCBC;" vertex="1" parent="1">
                    <mxGeometry x="360" y="320" width="40" height="40" as="geometry"/>
                </mxCell>
                <mxCell id="37" value="" style="rounded=0;whiteSpace=wrap;html=1;fillColor=#006633;fontColor=#ffffff;strokeColor=#BCBCBC;" vertex="1" parent="1">
                    <mxGeometry x="360" y="360" width="40" height="40" as="geometry"/>
                </mxCell>
                <mxCell id="41" value="" style="rounded=0;whiteSpace=wrap;html=1;fillColor=#006633;fontColor=#ffffff;strokeColor=#BCBCBC;" vertex="1" parent="1">
                    <mxGeometry x="240" y="400" width="40" height="40" as="geometry"/>
                </mxCell>
                <mxCell id="42" value="" style="rounded=0;whiteSpace=wrap;html=1;fillColor=#006633;fontColor=#ffffff;strokeColor=#BCBCBC;" vertex="1" parent="1">
                    <mxGeometry x="280" y="400" width="40" height="40" as="geometry"/>
                </mxCell>
                <mxCell id="43" value="" style="rounded=0;whiteSpace=wrap;html=1;fillColor=#006633;fontColor=#ffffff;strokeColor=#BCBCBC;" vertex="1" parent="1">
                    <mxGeometry x="320" y="400" width="40" height="40" as="geometry"/>
                </mxCell>
                <mxCell id="44" value="" style="rounded=0;whiteSpace=wrap;html=1;fillColor=#0000FF;fontColor=#ffffff;strokeColor=#BCBCBC;" vertex="1" parent="1">
                    <mxGeometry x="400" y="400" width="40" height="40" as="geometry"/>
                </mxCell>
                <mxCell id="45" value="" style="rounded=0;whiteSpace=wrap;html=1;fillColor=#0000FF;fontColor=#ffffff;strokeColor=#BCBCBC;" vertex="1" parent="1">
                    <mxGeometry x="440" y="400" width="40" height="40" as="geometry"/>
                </mxCell>
                <mxCell id="46" value="" style="rounded=0;whiteSpace=wrap;html=1;fillColor=#006633;fontColor=#ffffff;strokeColor=#BCBCBC;" vertex="1" parent="1">
                    <mxGeometry x="240" y="440" width="40" height="40" as="geometry"/>
                </mxCell>
                <mxCell id="47" value="" style="rounded=0;whiteSpace=wrap;html=1;fillColor=#006633;fontColor=#ffffff;strokeColor=#BCBCBC;" vertex="1" parent="1">
                    <mxGeometry x="280" y="440" width="40" height="40" as="geometry"/>
                </mxCell>
                <mxCell id="48" value="" style="rounded=0;whiteSpace=wrap;html=1;fillColor=#006633;fontColor=#ffffff;strokeColor=#BCBCBC;" vertex="1" parent="1">
                    <mxGeometry x="320" y="440" width="40" height="40" as="geometry"/>
                </mxCell>
                <mxCell id="49" value="" style="rounded=0;whiteSpace=wrap;html=1;fillColor=#006633;fontColor=#ffffff;strokeColor=#BCBCBC;" vertex="1" parent="1">
                    <mxGeometry x="240" y="560" width="40" height="40" as="geometry"/>
                </mxCell>
                <mxCell id="50" value="" style="rounded=0;whiteSpace=wrap;html=1;fillColor=#006633;fontColor=#ffffff;strokeColor=#BCBCBC;" vertex="1" parent="1">
                    <mxGeometry x="280" y="560" width="40" height="40" as="geometry"/>
                </mxCell>
                <mxCell id="51" value="" style="rounded=0;whiteSpace=wrap;html=1;fillColor=#006633;fontColor=#ffffff;strokeColor=#BCBCBC;" vertex="1" parent="1">
                    <mxGeometry x="240" y="600" width="40" height="40" as="geometry"/>
                </mxCell>
                <mxCell id="52" value="" style="rounded=0;whiteSpace=wrap;html=1;fillColor=#006633;fontColor=#ffffff;strokeColor=#BCBCBC;" vertex="1" parent="1">
                    <mxGeometry x="280" y="600" width="40" height="40" as="geometry"/>
                </mxCell>
                <mxCell id="53" value="" style="rounded=0;whiteSpace=wrap;html=1;fillColor=#006633;fontColor=#ffffff;strokeColor=#BCBCBC;" vertex="1" parent="1">
                    <mxGeometry x="320" y="560" width="40" height="40" as="geometry"/>
                </mxCell>
                <mxCell id="54" value="" style="rounded=0;whiteSpace=wrap;html=1;fillColor=#006633;fontColor=#ffffff;strokeColor=#BCBCBC;" vertex="1" parent="1">
                    <mxGeometry x="400" y="440" width="40" height="40" as="geometry"/>
                </mxCell>
                <mxCell id="55" value="" style="rounded=0;whiteSpace=wrap;html=1;fillColor=#006633;fontColor=#ffffff;strokeColor=#BCBCBC;" vertex="1" parent="1">
                    <mxGeometry x="440" y="440" width="40" height="40" as="geometry"/>
                </mxCell>
                <mxCell id="56" value="" style="rounded=0;whiteSpace=wrap;html=1;fillColor=#006633;fontColor=#ffffff;strokeColor=#BCBCBC;" vertex="1" parent="1">
                    <mxGeometry x="320" y="600" width="40" height="40" as="geometry"/>
                </mxCell>
                <mxCell id="57" value="" style="rounded=0;whiteSpace=wrap;html=1;fillColor=#006633;fontColor=#ffffff;strokeColor=#BCBCBC;" vertex="1" parent="1">
                    <mxGeometry x="400" y="560" width="40" height="40" as="geometry"/>
                </mxCell>
                <mxCell id="58" value="" style="rounded=0;whiteSpace=wrap;html=1;fillColor=#006633;fontColor=#ffffff;strokeColor=#BCBCBC;" vertex="1" parent="1">
                    <mxGeometry x="440" y="560" width="40" height="40" as="geometry"/>
                </mxCell>
                <mxCell id="59" value="" style="rounded=0;whiteSpace=wrap;html=1;fillColor=#006633;fontColor=#ffffff;strokeColor=#BCBCBC;" vertex="1" parent="1">
                    <mxGeometry x="400" y="600" width="40" height="40" as="geometry"/>
                </mxCell>
                <mxCell id="60" value="" style="rounded=0;whiteSpace=wrap;html=1;fillColor=#006633;fontColor=#ffffff;strokeColor=#BCBCBC;" vertex="1" parent="1">
                    <mxGeometry x="440" y="600" width="40" height="40" as="geometry"/>
                </mxCell>
                <mxCell id="61" value="" style="rounded=0;whiteSpace=wrap;html=1;fillColor=#006633;fontColor=#ffffff;strokeColor=#BCBCBC;" vertex="1" parent="1">
                    <mxGeometry x="240" y="480" width="40" height="40" as="geometry"/>
                </mxCell>
                <mxCell id="62" value="" style="rounded=0;whiteSpace=wrap;html=1;fillColor=#006633;fontColor=#ffffff;strokeColor=#BCBCBC;" vertex="1" parent="1">
                    <mxGeometry x="280" y="480" width="40" height="40" as="geometry"/>
                </mxCell>
                <mxCell id="63" value="" style="rounded=0;whiteSpace=wrap;html=1;fillColor=#006633;fontColor=#ffffff;strokeColor=#BCBCBC;" vertex="1" parent="1">
                    <mxGeometry x="240" y="520" width="40" height="40" as="geometry"/>
                </mxCell>
                <mxCell id="64" value="" style="rounded=0;whiteSpace=wrap;html=1;fillColor=#006633;fontColor=#ffffff;strokeColor=#BCBCBC;" vertex="1" parent="1">
                    <mxGeometry x="280" y="520" width="40" height="40" as="geometry"/>
                </mxCell>
                <mxCell id="65" value="" style="rounded=0;whiteSpace=wrap;html=1;fillColor=#006633;fontColor=#ffffff;strokeColor=#BCBCBC;" vertex="1" parent="1">
                    <mxGeometry x="320" y="480" width="40" height="40" as="geometry"/>
                </mxCell>
                <mxCell id="66" value="" style="rounded=0;whiteSpace=wrap;html=1;fillColor=#006633;fontColor=#ffffff;strokeColor=#BCBCBC;" vertex="1" parent="1">
                    <mxGeometry x="320" y="520" width="40" height="40" as="geometry"/>
                </mxCell>
                <mxCell id="67" value="" style="rounded=0;whiteSpace=wrap;html=1;fillColor=#006633;fontColor=#ffffff;strokeColor=#BCBCBC;" vertex="1" parent="1">
                    <mxGeometry x="360" y="480" width="40" height="40" as="geometry"/>
                </mxCell>
                <mxCell id="68" value="" style="rounded=0;whiteSpace=wrap;html=1;fillColor=#006633;fontColor=#ffffff;strokeColor=#BCBCBC;" vertex="1" parent="1">
                    <mxGeometry x="400" y="480" width="40" height="40" as="geometry"/>
                </mxCell>
                <mxCell id="69" value="" style="rounded=0;whiteSpace=wrap;html=1;fillColor=#006633;fontColor=#ffffff;strokeColor=#BCBCBC;" vertex="1" parent="1">
                    <mxGeometry x="360" y="520" width="40" height="40" as="geometry"/>
                </mxCell>
                <mxCell id="70" value="" style="rounded=0;whiteSpace=wrap;html=1;fillColor=#006633;fontColor=#ffffff;strokeColor=#BCBCBC;" vertex="1" parent="1">
                    <mxGeometry x="400" y="520" width="40" height="40" as="geometry"/>
                </mxCell>
                <mxCell id="71" value="" style="rounded=0;whiteSpace=wrap;html=1;fillColor=#006633;fontColor=#ffffff;strokeColor=#BCBCBC;" vertex="1" parent="1">
                    <mxGeometry x="440" y="480" width="40" height="40" as="geometry"/>
                </mxCell>
                <mxCell id="72" value="" style="rounded=0;whiteSpace=wrap;html=1;fillColor=#006633;fontColor=#ffffff;strokeColor=#BCBCBC;" vertex="1" parent="1">
                    <mxGeometry x="440" y="520" width="40" height="40" as="geometry"/>
                </mxCell>
                <mxCell id="73" value="" style="rounded=0;whiteSpace=wrap;html=1;fillColor=#006633;fontColor=#ffffff;strokeColor=#BCBCBC;" vertex="1" parent="1">
                    <mxGeometry x="360" y="400" width="40" height="40" as="geometry"/>
                </mxCell>
                <mxCell id="74" value="" style="rounded=0;whiteSpace=wrap;html=1;fillColor=#006633;fontColor=#ffffff;strokeColor=#BCBCBC;" vertex="1" parent="1">
                    <mxGeometry x="360" y="440" width="40" height="40" as="geometry"/>
                </mxCell>
                <mxCell id="75" value="" style="rounded=0;whiteSpace=wrap;html=1;fillColor=#006633;fontColor=#ffffff;strokeColor=#BCBCBC;" vertex="1" parent="1">
                    <mxGeometry x="360" y="560" width="40" height="40" as="geometry"/>
                </mxCell>
                <mxCell id="76" value="" style="rounded=0;whiteSpace=wrap;html=1;fillColor=#006633;fontColor=#ffffff;strokeColor=#BCBCBC;" vertex="1" parent="1">
                    <mxGeometry x="360" y="600" width="40" height="40" as="geometry"/>
                </mxCell>
                <mxCell id="77" value="" style="rounded=0;whiteSpace=wrap;html=1;fillColor=#0000FF;fontColor=#ffffff;strokeColor=#BCBCBC;" vertex="1" parent="1">
                    <mxGeometry x="480" y="160" width="40" height="40" as="geometry"/>
                </mxCell>
                <mxCell id="78" value="" style="rounded=0;whiteSpace=wrap;html=1;fillColor=#0000FF;fontColor=#ffffff;strokeColor=#BCBCBC;" vertex="1" parent="1">
                    <mxGeometry x="520" y="160" width="40" height="40" as="geometry"/>
                </mxCell>
                <mxCell id="79" value="" style="rounded=0;whiteSpace=wrap;html=1;fillColor=#0000FF;fontColor=#ffffff;strokeColor=#BCBCBC;" vertex="1" parent="1">
                    <mxGeometry x="560" y="160" width="40" height="40" as="geometry"/>
                </mxCell>
                <mxCell id="80" value="" style="rounded=0;whiteSpace=wrap;html=1;fillColor=#0000FF;fontColor=#ffffff;strokeColor=#BCBCBC;" vertex="1" parent="1">
                    <mxGeometry x="640" y="160" width="40" height="40" as="geometry"/>
                </mxCell>
                <mxCell id="81" value="" style="rounded=0;whiteSpace=wrap;html=1;fillColor=#0000FF;fontColor=#ffffff;strokeColor=#BCBCBC;" vertex="1" parent="1">
                    <mxGeometry x="680" y="160" width="40" height="40" as="geometry"/>
                </mxCell>
                <mxCell id="82" value="" style="rounded=0;whiteSpace=wrap;html=1;fillColor=#0000FF;fontColor=#ffffff;strokeColor=#BCBCBC;" vertex="1" parent="1">
                    <mxGeometry x="480" y="200" width="40" height="40" as="geometry"/>
                </mxCell>
                <mxCell id="83" value="" style="rounded=0;whiteSpace=wrap;html=1;fillColor=#0000FF;fontColor=#ffffff;strokeColor=#BCBCBC;" vertex="1" parent="1">
                    <mxGeometry x="520" y="200" width="40" height="40" as="geometry"/>
                </mxCell>
                <mxCell id="84" value="" style="rounded=0;whiteSpace=wrap;html=1;fillColor=#0000FF;fontColor=#ffffff;strokeColor=#BCBCBC;" vertex="1" parent="1">
                    <mxGeometry x="560" y="200" width="40" height="40" as="geometry"/>
                </mxCell>
                <mxCell id="85" value="" style="rounded=0;whiteSpace=wrap;html=1;fillColor=#0000FF;fontColor=#ffffff;strokeColor=#BCBCBC;" vertex="1" parent="1">
                    <mxGeometry x="480" y="320" width="40" height="40" as="geometry"/>
                </mxCell>
                <mxCell id="86" value="" style="rounded=0;whiteSpace=wrap;html=1;fillColor=#0000FF;fontColor=#ffffff;strokeColor=#BCBCBC;" vertex="1" parent="1">
                    <mxGeometry x="520" y="320" width="40" height="40" as="geometry"/>
                </mxCell>
                <mxCell id="87" value="" style="rounded=0;whiteSpace=wrap;html=1;fillColor=#0000FF;fontColor=#ffffff;strokeColor=#BCBCBC;" vertex="1" parent="1">
                    <mxGeometry x="480" y="360" width="40" height="40" as="geometry"/>
                </mxCell>
                <mxCell id="88" value="" style="rounded=0;whiteSpace=wrap;html=1;fillColor=#0000FF;fontColor=#ffffff;strokeColor=#BCBCBC;" vertex="1" parent="1">
                    <mxGeometry x="520" y="360" width="40" height="40" as="geometry"/>
                </mxCell>
                <mxCell id="89" value="" style="rounded=0;whiteSpace=wrap;html=1;fillColor=#0000FF;fontColor=#ffffff;strokeColor=#BCBCBC;" vertex="1" parent="1">
                    <mxGeometry x="560" y="320" width="40" height="40" as="geometry"/>
                </mxCell>
                <mxCell id="90" value="" style="rounded=0;whiteSpace=wrap;html=1;fillColor=#0000FF;fontColor=#ffffff;strokeColor=#BCBCBC;" vertex="1" parent="1">
                    <mxGeometry x="640" y="200" width="40" height="40" as="geometry"/>
                </mxCell>
                <mxCell id="91" value="" style="rounded=0;whiteSpace=wrap;html=1;fillColor=#0000FF;fontColor=#ffffff;strokeColor=#BCBCBC;" vertex="1" parent="1">
                    <mxGeometry x="680" y="200" width="40" height="40" as="geometry"/>
                </mxCell>
                <mxCell id="92" value="" style="rounded=0;whiteSpace=wrap;html=1;fillColor=#0000FF;fontColor=#ffffff;strokeColor=#BCBCBC;" vertex="1" parent="1">
                    <mxGeometry x="560" y="360" width="40" height="40" as="geometry"/>
                </mxCell>
                <mxCell id="93" value="" style="rounded=0;whiteSpace=wrap;html=1;fillColor=#0000FF;fontColor=#ffffff;strokeColor=#BCBCBC;" vertex="1" parent="1">
                    <mxGeometry x="640" y="320" width="40" height="40" as="geometry"/>
                </mxCell>
                <mxCell id="94" value="" style="rounded=0;whiteSpace=wrap;html=1;fillColor=#0000FF;fontColor=#ffffff;strokeColor=#BCBCBC;" vertex="1" parent="1">
                    <mxGeometry x="680" y="320" width="40" height="40" as="geometry"/>
                </mxCell>
                <mxCell id="95" value="" style="rounded=0;whiteSpace=wrap;html=1;fillColor=#0000FF;fontColor=#ffffff;strokeColor=#BCBCBC;" vertex="1" parent="1">
                    <mxGeometry x="640" y="360" width="40" height="40" as="geometry"/>
                </mxCell>
                <mxCell id="96" value="" style="rounded=0;whiteSpace=wrap;html=1;fillColor=#0000FF;fontColor=#ffffff;strokeColor=#BCBCBC;" vertex="1" parent="1">
                    <mxGeometry x="680" y="360" width="40" height="40" as="geometry"/>
                </mxCell>
                <mxCell id="97" value="" style="rounded=0;whiteSpace=wrap;html=1;fillColor=#0000FF;fontColor=#ffffff;strokeColor=#BCBCBC;" vertex="1" parent="1">
                    <mxGeometry x="480" y="240" width="40" height="40" as="geometry"/>
                </mxCell>
                <mxCell id="98" value="" style="rounded=0;whiteSpace=wrap;html=1;fillColor=#0000FF;fontColor=#ffffff;strokeColor=#BCBCBC;" vertex="1" parent="1">
                    <mxGeometry x="520" y="240" width="40" height="40" as="geometry"/>
                </mxCell>
                <mxCell id="99" value="" style="rounded=0;whiteSpace=wrap;html=1;fillColor=#0000FF;fontColor=#ffffff;strokeColor=#BCBCBC;" vertex="1" parent="1">
                    <mxGeometry x="480" y="280" width="40" height="40" as="geometry"/>
                </mxCell>
                <mxCell id="100" value="" style="rounded=0;whiteSpace=wrap;html=1;fillColor=#0000FF;fontColor=#ffffff;strokeColor=#BCBCBC;" vertex="1" parent="1">
                    <mxGeometry x="520" y="280" width="40" height="40" as="geometry"/>
                </mxCell>
                <mxCell id="101" value="" style="rounded=0;whiteSpace=wrap;html=1;fillColor=#0000FF;fontColor=#ffffff;strokeColor=#BCBCBC;" vertex="1" parent="1">
                    <mxGeometry x="560" y="240" width="40" height="40" as="geometry"/>
                </mxCell>
                <mxCell id="102" value="" style="rounded=0;whiteSpace=wrap;html=1;fillColor=#0000FF;fontColor=#ffffff;strokeColor=#BCBCBC;" vertex="1" parent="1">
                    <mxGeometry x="560" y="280" width="40" height="40" as="geometry"/>
                </mxCell>
                <mxCell id="103" value="" style="rounded=0;whiteSpace=wrap;html=1;fillColor=#0000FF;fontColor=#ffffff;strokeColor=#BCBCBC;" vertex="1" parent="1">
                    <mxGeometry x="600" y="240" width="40" height="40" as="geometry"/>
                </mxCell>
                <mxCell id="104" value="" style="rounded=0;whiteSpace=wrap;html=1;fillColor=#0000FF;fontColor=#ffffff;strokeColor=#BCBCBC;" vertex="1" parent="1">
                    <mxGeometry x="640" y="240" width="40" height="40" as="geometry"/>
                </mxCell>
                <mxCell id="105" value="" style="rounded=0;whiteSpace=wrap;html=1;fillColor=#0000FF;fontColor=#ffffff;strokeColor=#BCBCBC;" vertex="1" parent="1">
                    <mxGeometry x="600" y="280" width="40" height="40" as="geometry"/>
                </mxCell>
                <mxCell id="106" value="" style="rounded=0;whiteSpace=wrap;html=1;fillColor=#0000FF;fontColor=#ffffff;strokeColor=#BCBCBC;" vertex="1" parent="1">
                    <mxGeometry x="640" y="280" width="40" height="40" as="geometry"/>
                </mxCell>
                <mxCell id="107" value="" style="rounded=0;whiteSpace=wrap;html=1;fillColor=#0000FF;fontColor=#ffffff;strokeColor=#BCBCBC;" vertex="1" parent="1">
                    <mxGeometry x="680" y="240" width="40" height="40" as="geometry"/>
                </mxCell>
                <mxCell id="108" value="" style="rounded=0;whiteSpace=wrap;html=1;fillColor=#0000FF;fontColor=#ffffff;strokeColor=#BCBCBC;" vertex="1" parent="1">
                    <mxGeometry x="680" y="280" width="40" height="40" as="geometry"/>
                </mxCell>
                <mxCell id="109" value="" style="rounded=0;whiteSpace=wrap;html=1;fillColor=#0000FF;fontColor=#ffffff;strokeColor=#BCBCBC;" vertex="1" parent="1">
                    <mxGeometry x="600" y="160" width="40" height="40" as="geometry"/>
                </mxCell>
                <mxCell id="110" value="" style="rounded=0;whiteSpace=wrap;html=1;fillColor=#0000FF;fontColor=#ffffff;strokeColor=#BCBCBC;" vertex="1" parent="1">
                    <mxGeometry x="600" y="200" width="40" height="40" as="geometry"/>
                </mxCell>
                <mxCell id="111" value="" style="rounded=0;whiteSpace=wrap;html=1;fillColor=#0000FF;fontColor=#ffffff;strokeColor=#BCBCBC;" vertex="1" parent="1">
                    <mxGeometry x="600" y="320" width="40" height="40" as="geometry"/>
                </mxCell>
                <mxCell id="112" value="" style="rounded=0;whiteSpace=wrap;html=1;fillColor=#0000FF;fontColor=#ffffff;strokeColor=#BCBCBC;" vertex="1" parent="1">
                    <mxGeometry x="600" y="360" width="40" height="40" as="geometry"/>
                </mxCell>
                <mxCell id="113" value="" style="rounded=0;whiteSpace=wrap;html=1;fillColor=#0000FF;fontColor=#ffffff;strokeColor=#BCBCBC;" vertex="1" parent="1">
                    <mxGeometry x="480" y="400" width="40" height="40" as="geometry"/>
                </mxCell>
                <mxCell id="114" value="" style="rounded=0;whiteSpace=wrap;html=1;fillColor=#0000FF;fontColor=#ffffff;strokeColor=#BCBCBC;" vertex="1" parent="1">
                    <mxGeometry x="520" y="400" width="40" height="40" as="geometry"/>
                </mxCell>
                <mxCell id="115" value="" style="rounded=0;whiteSpace=wrap;html=1;fillColor=#0000FF;fontColor=#ffffff;strokeColor=#BCBCBC;" vertex="1" parent="1">
                    <mxGeometry x="560" y="400" width="40" height="40" as="geometry"/>
                </mxCell>
                <mxCell id="116" value="" style="rounded=0;whiteSpace=wrap;html=1;fillColor=#0000FF;fontColor=#ffffff;strokeColor=#BCBCBC;" vertex="1" parent="1">
                    <mxGeometry x="640" y="400" width="40" height="40" as="geometry"/>
                </mxCell>
                <mxCell id="117" value="" style="rounded=0;whiteSpace=wrap;html=1;fillColor=#0000FF;fontColor=#ffffff;strokeColor=#BCBCBC;" vertex="1" parent="1">
                    <mxGeometry x="680" y="400" width="40" height="40" as="geometry"/>
                </mxCell>
                <mxCell id="118" value="" style="rounded=0;whiteSpace=wrap;html=1;fillColor=#006633;fontColor=#ffffff;strokeColor=#BCBCBC;" vertex="1" parent="1">
                    <mxGeometry x="480" y="440" width="40" height="40" as="geometry"/>
                </mxCell>
                <mxCell id="119" value="" style="rounded=0;whiteSpace=wrap;html=1;fillColor=#006633;fontColor=#ffffff;strokeColor=#BCBCBC;" vertex="1" parent="1">
                    <mxGeometry x="520" y="440" width="40" height="40" as="geometry"/>
                </mxCell>
                <mxCell id="120" value="" style="rounded=0;whiteSpace=wrap;html=1;fillColor=#006633;fontColor=#ffffff;strokeColor=#BCBCBC;" vertex="1" parent="1">
                    <mxGeometry x="560" y="440" width="40" height="40" as="geometry"/>
                </mxCell>
                <mxCell id="121" value="" style="rounded=0;whiteSpace=wrap;html=1;fillColor=#006633;fontColor=#ffffff;strokeColor=#BCBCBC;" vertex="1" parent="1">
                    <mxGeometry x="480" y="560" width="40" height="40" as="geometry"/>
                </mxCell>
                <mxCell id="122" value="" style="rounded=0;whiteSpace=wrap;html=1;fillColor=#006633;fontColor=#ffffff;strokeColor=#BCBCBC;" vertex="1" parent="1">
                    <mxGeometry x="520" y="560" width="40" height="40" as="geometry"/>
                </mxCell>
                <mxCell id="123" value="" style="rounded=0;whiteSpace=wrap;html=1;fillColor=#006633;fontColor=#ffffff;strokeColor=#BCBCBC;" vertex="1" parent="1">
                    <mxGeometry x="480" y="600" width="40" height="40" as="geometry"/>
                </mxCell>
                <mxCell id="124" value="" style="rounded=0;whiteSpace=wrap;html=1;fillColor=#006633;fontColor=#ffffff;strokeColor=#BCBCBC;" vertex="1" parent="1">
                    <mxGeometry x="520" y="600" width="40" height="40" as="geometry"/>
                </mxCell>
                <mxCell id="125" value="" style="rounded=0;whiteSpace=wrap;html=1;fillColor=#006633;fontColor=#ffffff;strokeColor=#BCBCBC;" vertex="1" parent="1">
                    <mxGeometry x="560" y="560" width="40" height="40" as="geometry"/>
                </mxCell>
                <mxCell id="126" value="" style="rounded=0;whiteSpace=wrap;html=1;fillColor=#0000FF;fontColor=#ffffff;strokeColor=#BCBCBC;" vertex="1" parent="1">
                    <mxGeometry x="640" y="440" width="40" height="40" as="geometry"/>
                </mxCell>
                <mxCell id="127" value="" style="rounded=0;whiteSpace=wrap;html=1;fillColor=#0000FF;fontColor=#ffffff;strokeColor=#BCBCBC;" vertex="1" parent="1">
                    <mxGeometry x="680" y="440" width="40" height="40" as="geometry"/>
                </mxCell>
                <mxCell id="128" value="" style="rounded=0;whiteSpace=wrap;html=1;fillColor=#006633;fontColor=#ffffff;strokeColor=#BCBCBC;" vertex="1" parent="1">
                    <mxGeometry x="560" y="600" width="40" height="40" as="geometry"/>
                </mxCell>
                <mxCell id="129" value="" style="rounded=0;whiteSpace=wrap;html=1;fillColor=#006633;fontColor=#ffffff;strokeColor=#BCBCBC;" vertex="1" parent="1">
                    <mxGeometry x="640" y="560" width="40" height="40" as="geometry"/>
                </mxCell>
                <mxCell id="130" value="" style="rounded=0;whiteSpace=wrap;html=1;fillColor=#006633;fontColor=#ffffff;strokeColor=#BCBCBC;" vertex="1" parent="1">
                    <mxGeometry x="680" y="560" width="40" height="40" as="geometry"/>
                </mxCell>
                <mxCell id="131" value="" style="rounded=0;whiteSpace=wrap;html=1;fillColor=#006633;fontColor=#ffffff;strokeColor=#BCBCBC;" vertex="1" parent="1">
                    <mxGeometry x="640" y="600" width="40" height="40" as="geometry"/>
                </mxCell>
                <mxCell id="132" value="" style="rounded=0;whiteSpace=wrap;html=1;fillColor=#006633;fontColor=#ffffff;strokeColor=#BCBCBC;" vertex="1" parent="1">
                    <mxGeometry x="680" y="600" width="40" height="40" as="geometry"/>
                </mxCell>
                <mxCell id="133" value="" style="rounded=0;whiteSpace=wrap;html=1;fillColor=#006633;fontColor=#ffffff;strokeColor=#BCBCBC;" vertex="1" parent="1">
                    <mxGeometry x="480" y="480" width="40" height="40" as="geometry"/>
                </mxCell>
                <mxCell id="134" value="" style="rounded=0;whiteSpace=wrap;html=1;fillColor=#006633;fontColor=#ffffff;strokeColor=#BCBCBC;" vertex="1" parent="1">
                    <mxGeometry x="520" y="480" width="40" height="40" as="geometry"/>
                </mxCell>
                <mxCell id="135" value="" style="rounded=0;whiteSpace=wrap;html=1;fillColor=#006633;fontColor=#ffffff;strokeColor=#BCBCBC;" vertex="1" parent="1">
                    <mxGeometry x="480" y="520" width="40" height="40" as="geometry"/>
                </mxCell>
                <mxCell id="136" value="" style="rounded=0;whiteSpace=wrap;html=1;fillColor=#006633;fontColor=#ffffff;strokeColor=#BCBCBC;" vertex="1" parent="1">
                    <mxGeometry x="520" y="520" width="40" height="40" as="geometry"/>
                </mxCell>
                <mxCell id="137" value="" style="rounded=0;whiteSpace=wrap;html=1;fillColor=#006633;fontColor=#ffffff;strokeColor=#BCBCBC;" vertex="1" parent="1">
                    <mxGeometry x="560" y="480" width="40" height="40" as="geometry"/>
                </mxCell>
                <mxCell id="138" value="" style="rounded=0;whiteSpace=wrap;html=1;fillColor=#006633;fontColor=#ffffff;strokeColor=#BCBCBC;" vertex="1" parent="1">
                    <mxGeometry x="560" y="520" width="40" height="40" as="geometry"/>
                </mxCell>
                <mxCell id="139" value="" style="rounded=0;whiteSpace=wrap;html=1;fillColor=#0000FF;fontColor=#ffffff;strokeColor=#BCBCBC;" vertex="1" parent="1">
                    <mxGeometry x="600" y="480" width="40" height="40" as="geometry"/>
                </mxCell>
                <mxCell id="140" value="" style="rounded=0;whiteSpace=wrap;html=1;fillColor=#0000FF;fontColor=#ffffff;strokeColor=#BCBCBC;" vertex="1" parent="1">
                    <mxGeometry x="640" y="480" width="40" height="40" as="geometry"/>
                </mxCell>
                <mxCell id="141" value="" style="rounded=0;whiteSpace=wrap;html=1;fillColor=#006633;fontColor=#ffffff;strokeColor=#BCBCBC;" vertex="1" parent="1">
                    <mxGeometry x="600" y="520" width="40" height="40" as="geometry"/>
                </mxCell>
                <mxCell id="142" value="" style="rounded=0;whiteSpace=wrap;html=1;fillColor=#006633;fontColor=#ffffff;strokeColor=#BCBCBC;" vertex="1" parent="1">
                    <mxGeometry x="640" y="520" width="40" height="40" as="geometry"/>
                </mxCell>
                <mxCell id="143" value="" style="rounded=0;whiteSpace=wrap;html=1;fillColor=#0000FF;fontColor=#ffffff;strokeColor=#BCBCBC;" vertex="1" parent="1">
                    <mxGeometry x="680" y="480" width="40" height="40" as="geometry"/>
                </mxCell>
                <mxCell id="144" value="" style="rounded=0;whiteSpace=wrap;html=1;fillColor=#006633;fontColor=#ffffff;strokeColor=#BCBCBC;" vertex="1" parent="1">
                    <mxGeometry x="680" y="520" width="40" height="40" as="geometry"/>
                </mxCell>
                <mxCell id="145" value="" style="rounded=0;whiteSpace=wrap;html=1;fillColor=#0000FF;fontColor=#ffffff;strokeColor=#BCBCBC;" vertex="1" parent="1">
                    <mxGeometry x="600" y="400" width="40" height="40" as="geometry"/>
                </mxCell>
                <mxCell id="146" value="" style="rounded=0;whiteSpace=wrap;html=1;fillColor=#0000FF;fontColor=#ffffff;strokeColor=#BCBCBC;" vertex="1" parent="1">
                    <mxGeometry x="600" y="440" width="40" height="40" as="geometry"/>
                </mxCell>
                <mxCell id="147" value="" style="rounded=0;whiteSpace=wrap;html=1;fillColor=#006633;fontColor=#ffffff;strokeColor=#BCBCBC;" vertex="1" parent="1">
                    <mxGeometry x="600" y="560" width="40" height="40" as="geometry"/>
                </mxCell>
                <mxCell id="148" value="" style="rounded=0;whiteSpace=wrap;html=1;fillColor=#006633;fontColor=#ffffff;strokeColor=#BCBCBC;" vertex="1" parent="1">
                    <mxGeometry x="600" y="600" width="40" height="40" as="geometry"/>
                </mxCell>
                <mxCell id="151" value="B" style="text;html=1;strokeColor=none;fillColor=none;align=center;verticalAlign=middle;whiteSpace=wrap;rounded=0;labelBackgroundColor=#000000;fontFamily=Georgia;fontSize=42;fontColor=#FFFFFF;" vertex="1" parent="1">
                    <mxGeometry x="550" y="285" width="60" height="30" as="geometry"/>
                </mxCell>
                <mxCell id="152" value="A" style="text;html=1;strokeColor=none;fillColor=none;align=center;verticalAlign=middle;whiteSpace=wrap;rounded=0;labelBackgroundColor=#000000;fontFamily=Georgia;fontSize=42;fontColor=#FFFFFF;" vertex="1" parent="1">
                    <mxGeometry x="350" y="510" width="60" height="30" as="geometry"/>
                </mxCell>
            </root>
        </mxGraphModel>
    </diagram>
</mxfile>